HIERARCHY
ROOT Hips
{
	OFFSET 0.000000 0.000000 0.000000
	CHANNELS 6 Xposition Yposition Zposition Zrotation Yrotation Xrotation 
	JOINT LeftUpLeg_virtual
	{
		OFFSET 0.000000 0.000000 0.000000
		CHANNELS 3 Zrotation Yrotation Xrotation
		JOINT LeftUpLeg
		{
			OFFSET 10.205400 -3.823500 0.155100
			CHANNELS 3 Zrotation Yrotation Xrotation
			JOINT LeftLeg
			{
				OFFSET 0.708757 -12.982077 0.567790
				CHANNELS 3 Zrotation Yrotation Xrotation
				JOINT LeftFoot
				{
					OFFSET -0.708756 -10.717838 -2.184338
					CHANNELS 3 Zrotation Yrotation Xrotation
					JOINT LeftToeBase
					{
						OFFSET 0.108149 -7.191104 7.560241
						CHANNELS 3 Zrotation Yrotation Xrotation
						End Site
						{
							OFFSET 0.000000 0.000000 0.000000
						}
					}
				}
			}
		}
	}
	JOINT RightUpLeg_virtual
	{
		OFFSET 0.000000 0.000000 0.000000
		CHANNELS 3 Zrotation Yrotation Xrotation
		JOINT RightUpLeg
		{
			OFFSET -10.205400 -3.823500 0.005500
			CHANNELS 3 Zrotation Yrotation Xrotation
			JOINT RightLeg
			{
				OFFSET -0.708756 -12.982134 0.610632
				CHANNELS 3 Zrotation Yrotation Xrotation
				JOINT RightFoot
				{
					OFFSET 0.708754 -10.717769 -1.945823
					CHANNELS 3 Zrotation Yrotation Xrotation
					JOINT RightToeBase
					{
						OFFSET -0.108140 -7.191069 7.372968
						CHANNELS 3 Zrotation Yrotation Xrotation
						End Site
						{
							OFFSET 0.000000 0.000000 0.000000
						}
					}
				}
			}
		}
	}
	JOINT Spine_virtual
	{
		OFFSET 0.000000 0.000000 0.000000
		CHANNELS 3 Zrotation Yrotation Xrotation
		JOINT Spine
		{
			OFFSET 0.000000 6.876099 0.125700
			CHANNELS 3 Zrotation Yrotation Xrotation
			JOINT Spine1
			{
				OFFSET 0.000000 8.022060 0.146608
				CHANNELS 3 Zrotation Yrotation Xrotation
				JOINT Spine2
				{
					OFFSET 0.000000 9.168068 0.167552
					CHANNELS 3 Zrotation Yrotation Xrotation
					JOINT Neck_virtual
					{
						OFFSET 0.000000 0.000000 0.000000
						CHANNELS 3 Zrotation Yrotation Xrotation
						JOINT Neck
						{
							OFFSET 0.000000 10.314075 0.188496
							CHANNELS 3 Zrotation Yrotation Xrotation
							JOINT Head
							{
								OFFSET 0.000000 7.643700 -2.377400
								CHANNELS 3 Zrotation Yrotation Xrotation
								End Site
								{
									OFFSET 0.000000 0.000000 0.000000
								}
							}
						}
					}
					JOINT LeftShoulder_virtual
					{
						OFFSET 0.000000 0.000000 0.000000
						CHANNELS 3 Zrotation Yrotation Xrotation
						JOINT LeftShoulder
						{
							OFFSET 4.392200 8.824978 0.174984
							CHANNELS 3 Zrotation Yrotation Xrotation
							JOINT LeftArm
							{
								OFFSET 8.771219 -2.981674 -0.026999
								CHANNELS 3 Zrotation Yrotation Xrotation
								JOINT LeftForeArm
								{
									OFFSET 8.512804 0.000000 -0.000000
									CHANNELS 3 Zrotation Yrotation Xrotation
									JOINT LeftHand
									{
										OFFSET 18.484802 0.000000 -0.000000
										CHANNELS 3 Zrotation Yrotation Xrotation
										End Site
										{
											OFFSET 0.000000 0.000000 0.000000
										}
									}
								}
							}
						}
					}
					JOINT RightShoulder_virtual
					{
						OFFSET 0.000000 0.000000 0.000000
						CHANNELS 3 Zrotation Yrotation Xrotation
						JOINT RightShoulder
						{
							OFFSET -4.392200 8.824993 0.141379
							CHANNELS 3 Zrotation Yrotation Xrotation
							JOINT RightArm
							{
								OFFSET -8.771282 -2.981682 -0.094208
								CHANNELS 3 Zrotation Yrotation Xrotation
								JOINT RightForeArm
								{
									OFFSET -8.494598 0.000000 0.000000
									CHANNELS 3 Zrotation Yrotation Xrotation
									JOINT RightHand
									{
										OFFSET -18.483803 0.000000 0.000001
										CHANNELS 3 Zrotation Yrotation Xrotation
										End Site
										{
											OFFSET 0.000000 0.000000 0.000000
										}
									}
								}
							}
						}
					}
				}
			}
		}
	}
}
MOTION
Frames: 5
Frame Time: 0.033333
6.097898 36.738010 94.545578 179.892088 5.810500 -179.990101 -4.084530 -3.319733 11.227219 -6.830266 -10.648830 -20.353802 13.579015 11.476794 13.498783 -5.170416 3.338455 15.603058 0.000000 0.000000 0.000000 2.118708 -1.426749 8.306142 3.802812 -0.231746 -6.342621 -7.758965 0.182272 8.886616 3.516375 10.876228 11.078687 0.000000 0.000000 0.000000 1.731709 0.353167 1.819076 -3.581146 2.919187 -7.962491 1.078171 -4.602719 3.568859 -0.031361 -0.009855 0.026473 0.763162 -3.026540 6.566335 3.234227 3.361575 -1.358001 0.000000 0.000000 0.000000 1.990594 -1.840228 3.600522 5.973538 -1.964575 -6.853703 -20.756074 30.951480 -32.051131 -7.272968 -27.137462 -0.811388 0.000000 0.000000 0.000000 -1.421835 -1.067980 3.292816 9.390848 -4.996281 -12.862602 22.779016 -38.329973 -28.117020 -2.190846 32.715636 -6.201609 0.000000 0.000000 0.000000 
6.112448 36.727577 94.485497 179.888891 5.851306 -179.988995 -4.052001 -3.205727 11.269929 -6.760770 -10.693177 -20.418818 13.663240 11.406603 13.602554 -5.141879 3.393134 15.504576 0.000000 0.000000 0.000000 2.143282 -1.204127 8.480032 3.875589 -0.341314 -6.335151 -7.729764 0.271283 9.316212 3.609897 10.880514 10.678469 0.000000 0.000000 0.000000 1.692388 0.450323 1.839418 -3.556051 2.929027 -8.033967 1.104055 -4.583705 3.550079 -0.002093 0.009255 0.023530 0.735565 -3.060551 6.559461 3.238324 3.272264 -1.329775 0.000000 0.000000 0.000000 1.979368 -1.879404 3.630823 6.015048 -2.088064 -6.877609 -20.589872 30.841241 -32.038447 -7.278117 -27.212734 -0.735053 0.000000 0.000000 0.000000 -1.423146 -1.157237 3.281812 9.485377 -5.066595 -12.883210 22.724920 -38.248052 -28.000104 -2.134820 32.683637 -6.138247 0.000000 0.000000 0.000000 
6.111998 36.714642 94.398911 179.976591 5.883802 -179.978818 -3.958820 -3.119269 11.349162 -6.793040 -10.707087 -20.486616 13.694794 11.378138 13.932923 -5.200608 3.380504 15.208512 0.000000 0.000000 0.000000 2.269961 -0.953210 8.637290 3.905550 -0.395716 -6.387364 -7.795015 0.243086 9.446630 3.705508 10.615337 10.521081 0.000000 0.000000 0.000000 1.712091 0.551171 1.864246 -3.506035 2.880429 -8.098284 1.172414 -4.634253 3.508981 0.004766 -0.013783 0.011603 0.735740 -2.932262 6.518193 3.289830 3.127372 -1.310130 0.000000 0.000000 0.000000 1.973426 -1.857689 3.578051 5.984379 -2.252263 -6.746501 -20.355630 30.666180 -31.840365 -7.237802 -27.336592 -0.457587 0.000000 0.000000 0.000000 -1.428780 -1.085153 3.242865 9.588798 -5.055143 -12.676204 22.658992 -38.180990 -27.939765 -2.117882 32.659233 -6.100192 0.000000 0.000000 0.000000 
6.100199 36.700893 94.306412 179.988940 6.034613 -179.847869 -3.954556 -3.033758 11.346950 -6.814417 -10.669430 -20.615292 13.772804 11.521847 14.388574 -5.254292 3.372083 14.840461 0.000000 0.000000 0.000000 2.270546 -0.729349 8.697540 3.918198 -0.295076 -6.493249 -7.916334 0.342725 9.732041 3.741648 10.461543 10.290681 0.000000 0.000000 0.000000 1.687832 0.635761 1.797835 -3.510960 2.851164 -8.162472 1.251745 -4.647056 3.445737 0.014442 -0.004991 0.012632 0.809555 -2.893986 6.470394 3.363849 2.947829 -1.233060 0.000000 0.000000 0.000000 2.058740 -1.854462 3.580107 5.890367 -2.504551 -6.752518 -20.062936 30.456404 -31.647217 -7.272435 -27.466153 -0.400752 0.000000 0.000000 0.000000 -1.361384 -1.092408 3.223480 9.686100 -5.067307 -12.535964 22.691415 -38.155387 -27.955206 -2.067727 32.636423 -6.053453 0.000000 0.000000 0.000000 
6.083183 36.692310 94.218475 179.981768 6.056222 -179.948710 -4.010410 -3.131759 11.434177 -6.828124 -10.648710 -20.600131 13.798627 11.577394 14.818138 -5.337296 3.363975 14.372538 0.000000 0.000000 0.000000 2.255814 -0.785671 8.841466 3.916324 -0.228805 -6.475500 -8.030078 0.490939 9.838194 3.938132 10.353967 10.316161 0.000000 0.000000 0.000000 1.650372 0.622945 1.888014 -3.514220 2.792753 -8.076052 1.323323 -4.665579 3.427557 -0.011477 -0.039044 0.032597 0.909559 -2.996093 6.323063 3.501857 2.813353 -1.110343 0.000000 0.000000 0.000000 2.165219 -1.856747 3.412143 5.751664 -2.784345 -6.576857 -19.912815 30.291240 -31.422436 -7.225200 -27.641622 -0.292326 0.000000 0.000000 0.000000 -1.244744 -1.105679 3.075904 9.811218 -5.053061 -12.373479 22.666075 -38.147853 -27.903385 -2.040456 32.608074 -6.036572 0.000000 0.000000 0.000000 
